<svg width="17" height="16" viewBox="0 0 17 16" fill="none" xmlns="http://www.w3.org/2000/svg">
<path opacity="0.4" d="M15.6734 7.98108C15.6734 12.1128 12.324 15.4622 8.19227 15.4622C4.06058 15.4622 0.711182 12.1128 0.711182 7.98108C0.711182 3.8494 4.06058 0.5 8.19227 0.5C12.324 0.5 15.6734 3.8494 15.6734 7.98108Z" stroke="#26235B"/>
<path d="M6.87805 12.6667C6.72228 12.667 6.57132 12.6127 6.45138 12.5133C6.38387 12.4574 6.32807 12.3886 6.28717 12.3111C6.24627 12.2335 6.22107 12.1486 6.21302 12.0613C6.20497 11.974 6.21422 11.8859 6.24025 11.8022C6.26628 11.7185 6.30858 11.6407 6.36471 11.5733L9.35138 8L6.47138 4.42C6.416 4.35181 6.37465 4.27334 6.34969 4.18912C6.32474 4.10489 6.31668 4.01656 6.32597 3.92921C6.33526 3.84186 6.36173 3.75721 6.40384 3.68011C6.44596 3.60302 6.50289 3.53502 6.57138 3.48C6.64036 3.41931 6.72113 3.37353 6.80864 3.34554C6.89615 3.31755 6.9885 3.30794 7.07989 3.31733C7.17129 3.32672 7.25976 3.3549 7.33975 3.4001C7.41973 3.44531 7.48952 3.50655 7.54471 3.58L10.7647 7.58C10.8628 7.69929 10.9164 7.84891 10.9164 8.00333C10.9164 8.15775 10.8628 8.30737 10.7647 8.42666L7.43138 12.4267C7.3645 12.5073 7.27954 12.5711 7.1834 12.6128C7.08726 12.6545 6.98265 12.673 6.87805 12.6667Z" fill="#26235B"/>
</svg>
