<svg width="16" height="16" viewBox="0 0 16 16" fill="none" xmlns="http://www.w3.org/2000/svg">
<g clip-path="url(#clip0_9_1256)">
<path d="M8.88393 8.00027L15.8169 1.06722C16.061 0.823125 16.061 0.427376 15.8169 0.183314C15.5729 -0.0607479 15.1771 -0.0607792 14.933 0.183314L7.99999 7.11636L1.06697 0.183314C0.822881 -0.0607792 0.427132 -0.0607792 0.18307 0.183314C-0.0609921 0.427407 -0.0610233 0.823157 0.18307 1.06722L7.11609 8.00024L0.18307 14.9333C-0.0610233 15.1774 -0.0610233 15.5731 0.18307 15.8172C0.305101 15.9392 0.465069 16.0002 0.625038 16.0002C0.785006 16.0002 0.944944 15.9392 1.06701 15.8172L7.99999 8.88417L14.933 15.8172C15.055 15.9392 15.215 16.0002 15.375 16.0002C15.5349 16.0002 15.6949 15.9392 15.8169 15.8172C16.061 15.5731 16.061 15.1773 15.8169 14.9333L8.88393 8.00027Z" fill="#565656"/>
</g>
<defs>
<clipPath id="clip0_9_1256">
<rect width="16" height="16" fill="white"/>
</clipPath>
</defs>
</svg>
