<svg width="16" height="16" viewBox="0 0 16 16" fill="none" xmlns="http://www.w3.org/2000/svg">
<path d="M13 10.375C12.012 10.375 11.1413 10.8307 10.5944 11.5236L5.86633 9.25387C5.94483 9.00303 6 8.74306 6 8.46875C6 8.09669 5.91863 7.74297 5.77807 7.41762L10.7262 4.62612C11.2769 5.232 12.0863 5.625 13 5.625C14.6543 5.625 16 4.36341 16 2.8125C16 1.26159 14.6543 0 13 0C11.3457 0 10 1.26159 10 2.8125C10 3.16991 10.0785 3.50894 10.2087 3.82369L5.24583 6.62337C4.69563 6.0355 3.8979 5.65625 3 5.65625C1.3457 5.65625 0 6.91784 0 8.46875C0 10.0197 1.3457 11.2812 3 11.2812C4.00433 11.2812 4.8897 10.8122 5.4345 10.0998L10.147 12.3622C10.0602 12.6248 10 12.8984 10 13.1875C10 14.7384 11.3457 16 13 16C14.6543 16 16 14.7384 16 13.1875C16 11.6366 14.6543 10.375 13 10.375Z" fill="#26235B"/>
</svg>
