<svg width="16" height="15" viewBox="0 0 16 15" fill="none" xmlns="http://www.w3.org/2000/svg">
<path d="M13.1875 0.274658V2.81247H15.7253L13.1875 0.274658Z" fill="#565656"/>
<path d="M12.25 3.75V0H5.625V2.07C7.78688 2.68344 9.375 4.67531 9.375 7.03125C9.375 9.38719 7.78688 11.3791 5.625 11.9925V14.0625H16V3.75H12.25ZM13.6562 10.3125H8.96875V9.375H13.6562V10.3125ZM13.6562 8.4375H9.4375V7.5H13.6562V8.4375ZM13.6562 6.5625H9.90625V5.625H13.6562V6.5625Z" fill="#565656"/>
<path d="M8.4375 7.03125C8.4375 4.705 6.545 2.8125 4.21875 2.8125C1.8925 2.8125 0 4.705 0 7.03125C0 9.19906 1.64344 10.9903 3.75 11.2241V16H4.6875V11.2241C6.79406 10.9903 8.4375 9.19906 8.4375 7.03125ZM2.8125 8.4375H1.875V6.5625H2.8125V8.4375ZM4.6875 8.4375H3.75V4.6875H4.6875V8.4375ZM6.5625 8.4375H5.625V5.625H6.5625V8.4375Z" fill="#565656"/>
</svg>
